# xmcd
#
# Track frame offsets:
#	150
#	11135
#	24856
#	39933
#	55417
#	72805
#	85815
#	102978
#	121760
#	134104
#
# Disc length: 2001 seconds
#
# Revision: 0
# Processed by: cddbd v1.5.1PL0 Copyright (c) Steve Scherf et al.
# Submitted via: dBpowerAMP V4.0
#
DISCID=7e07cf0a
DTITLE=Jason Meadows - Jason Meadows
DYEAR=2005
DGENRE=Country
TTITLE0=Countrified
TTITLE1=Big Shot
TTITLE2=San Antone Alone
TTITLE3=I Didn't Get My Dog Back
TTITLE4=Don't Try To Find Me
TTITLE5=More Than I Was Praying For
TTITLE6=The Real Bubba
TTITLE7=All These Memories
TTITLE8=Cowboy Up
TTITLE9=Get Off My Farm
EXTD=
EXTT0=
EXTT1=
EXTT2=
EXTT3=
EXTT4=
EXTT5=
EXTT6=
EXTT7=
EXTT8=
EXTT9=
PLAYORDER=
